<svg xmlns="http://www.w3.org/2000/svg" xmlns:xlink="http://www.w3.org/1999/xlink" viewBox="0 0 362.56 269.94"><defs><style>.cls-1{isolation:isolate;}.cls-2,.cls-29,.cls-32,.cls-4{fill:#231f20;}.cls-3{fill:#d1d3d4;}.cls-3,.cls-4{mix-blend-mode:multiply;}.cls-5{fill:#fff;}.cls-29,.cls-5{mix-blend-mode:soft-light;opacity:0.3;}.cls-6{fill:url(#linear-gradient);}.cls-7{fill:url(#linear-gradient-2);}.cls-8{fill:url(#linear-gradient-3);}.cls-9{fill:url(#linear-gradient-4);}.cls-10{fill:url(#linear-gradient-5);}.cls-11{fill:url(#linear-gradient-6);}.cls-12{fill:url(#linear-gradient-7);}.cls-13{fill:url(#linear-gradient-8);}.cls-14{fill:url(#linear-gradient-9);}.cls-15{fill:url(#linear-gradient-10);}.cls-16{fill:url(#linear-gradient-11);}.cls-17{fill:url(#linear-gradient-12);}.cls-18{fill:url(#linear-gradient-13);}.cls-19{fill:url(#linear-gradient-14);}.cls-20{fill:url(#linear-gradient-15);}.cls-21{fill:url(#linear-gradient-16);}.cls-22{fill:url(#linear-gradient-17);}.cls-23{fill:url(#linear-gradient-18);}.cls-24{fill:url(#linear-gradient-19);}.cls-25{fill:url(#linear-gradient-20);}.cls-26{fill:url(#linear-gradient-21);}.cls-27{fill:url(#linear-gradient-22);}.cls-28{fill:url(#linear-gradient-23);}.cls-30,.cls-31{fill:#8dc63f;}.cls-31{stroke:#231f20;}.cls-31,.cls-32{stroke-miterlimit:10;}.cls-32{stroke:#8dc63f;stroke-width:5px;}</style><linearGradient id="linear-gradient" x1="167.13" y1="-1228.84" x2="168" y2="-1228.84" gradientTransform="matrix(0.74, -0.68, 0.52, 0.57, 669.03, 851.12)" gradientUnits="userSpaceOnUse"><stop offset="0" stop-color="#4c7520"/><stop offset="0.05" stop-color="#527c23"/><stop offset="0.2" stop-color="#5f8d2a"/><stop offset="0.36" stop-color="#67972e"/><stop offset="0.57" stop-color="#6a9a2f"/><stop offset="1" stop-color="#4c7520"/></linearGradient><linearGradient id="linear-gradient-2" x1="162.28" y1="-1225.37" x2="163.16" y2="-1225.37" xlink:href="#linear-gradient"/><linearGradient id="linear-gradient-3" x1="156.94" y1="-1216.6" x2="157.85" y2="-1216.6" gradientTransform="matrix(0.74, -0.68, 0.6, 0.65, 762.55, 952.6)" xlink:href="#linear-gradient"/><linearGradient id="linear-gradient-4" x1="152.41" y1="-1208.8" x2="153.36" y2="-1208.8" gradientTransform="matrix(0.74, -0.68, 0.66, 0.71, 830.41, 1026.41)" xlink:href="#linear-gradient"/><linearGradient id="linear-gradient-5" x1="147.35" y1="-1200.68" x2="148.33" y2="-1200.68" gradientTransform="matrix(0.74, -0.68, 0.71, 0.77, 893.54, 1094.72)" xlink:href="#linear-gradient"/><linearGradient id="linear-gradient-6" x1="142.55" y1="-1192.8" x2="143.55" y2="-1192.8" gradientTransform="matrix(0.74, -0.68, 0.75, 0.81, 934.56, 1139.42)" xlink:href="#linear-gradient"/><linearGradient id="linear-gradient-7" x1="137.51" y1="-1184.5" x2="138.54" y2="-1184.5" gradientTransform="matrix(0.74, -0.68, 0.79, 0.86, 976.87, 1185.13)" xlink:href="#linear-gradient"/><linearGradient id="linear-gradient-8" x1="132.86" y1="-1175.39" x2="133.93" y2="-1175.39" gradientTransform="matrix(0.74, -0.68, 0.84, 0.92, 1036.58, 1250.46)" xlink:href="#linear-gradient"/><linearGradient id="linear-gradient-9" x1="127.53" y1="-1174.37" x2="128.59" y2="-1174.37" gradientTransform="matrix(0.74, -0.68, 0.83, 0.91, 1032.36, 1244.87)" xlink:href="#linear-gradient"/><linearGradient id="linear-gradient-10" x1="123.92" y1="-1190.61" x2="124.9" y2="-1190.61" gradientTransform="matrix(0.74, -0.68, 0.71, 0.78, 905.83, 1108.09)" xlink:href="#linear-gradient"/><linearGradient id="linear-gradient-11" x1="120.44" y1="-1265.85" x2="121.29" y2="-1265.85" gradientTransform="matrix(0.74, -0.68, 0.46, 0.51, 648.9, 829.31)" xlink:href="#linear-gradient"/><linearGradient id="linear-gradient-12" x1="1265.01" y1="202.48" x2="1265.88" y2="202.48" gradientTransform="matrix(-0.68, -0.74, -0.57, 0.52, 1135.67, 870.81)" xlink:href="#linear-gradient"/><linearGradient id="linear-gradient-13" x1="1260.19" y1="205.97" x2="1261.06" y2="205.97" gradientTransform="matrix(-0.68, -0.74, -0.57, 0.52, 1135.67, 870.81)" xlink:href="#linear-gradient"/><linearGradient id="linear-gradient-14" x1="1255.28" y1="27.17" x2="1256.19" y2="27.17" gradientTransform="matrix(-0.68, -0.74, -0.65, 0.6, 1034.2, 964.32)" xlink:href="#linear-gradient"/><linearGradient id="linear-gradient-15" x1="1250.86" y1="-74.45" x2="1251.8" y2="-74.45" gradientTransform="matrix(-0.68, -0.74, -0.71, 0.66, 960.39, 1032.18)" xlink:href="#linear-gradient"/><linearGradient id="linear-gradient-16" x1="1246.32" y1="-153.76" x2="1247.3" y2="-153.76" gradientTransform="matrix(-0.68, -0.74, -0.77, 0.71, 892.07, 1095.32)" xlink:href="#linear-gradient"/><linearGradient id="linear-gradient-17" x1="1241.48" y1="-197.95" x2="1242.48" y2="-197.95" gradientTransform="matrix(-0.68, -0.74, -0.81, 0.75, 847.37, 1136.33)" xlink:href="#linear-gradient"/><linearGradient id="linear-gradient-18" x1="1236.89" y1="-238.81" x2="1237.92" y2="-238.81" gradientTransform="matrix(-0.68, -0.74, -0.86, 0.79, 801.66, 1178.64)" xlink:href="#linear-gradient"/><linearGradient id="linear-gradient-19" x1="1231.87" y1="-291.4" x2="1232.93" y2="-291.4" gradientTransform="matrix(-0.68, -0.74, -0.92, 0.84, 736.34, 1238.35)" xlink:href="#linear-gradient"/><linearGradient id="linear-gradient-20" x1="1227.79" y1="-283.41" x2="1228.85" y2="-283.41" gradientTransform="matrix(-0.68, -0.74, -0.91, 0.83, 741.92, 1234.13)" xlink:href="#linear-gradient"/><linearGradient id="linear-gradient-21" x1="1223.02" y1="-148.56" x2="1224" y2="-148.56" gradientTransform="matrix(-0.68, -0.74, -0.78, 0.71, 878.7, 1107.6)" xlink:href="#linear-gradient"/><linearGradient id="linear-gradient-22" x1="1218.43" y1="336.95" x2="1219.27" y2="336.95" gradientTransform="matrix(-0.68, -0.74, -0.51, 0.46, 1157.49, 850.67)" xlink:href="#linear-gradient"/><linearGradient id="linear-gradient-23" x1="394.01" y1="-541.23" x2="397.06" y2="-541.23" gradientTransform="translate(-259.88 593.53) rotate(2.42)" xlink:href="#linear-gradient"/></defs><g class="cls-1"><g id="Capa_1" data-name="Capa 1"><path class="cls-2" d="M348.66,203.37a4.94,4.94,0,0,1-5,4.91H92.84a4.94,4.94,0,0,1-5-4.91h0a5,5,0,0,1,5-4.92H343.7a4.94,4.94,0,0,1,5,4.92Z" transform="translate(-35.46 -19.43)"/><path class="cls-3" d="M87.89,203c0,.11,0,.22,0,.33a4.94,4.94,0,0,0,5,4.91H343.7a4.94,4.94,0,0,0,5-4.91c0-.11,0-.22,0-.33Z" transform="translate(-35.46 -19.43)"/><path class="cls-2" d="M234.77,106.64c0,4.58-5.78,8.3-12.91,8.3S209,111.22,209,106.64s5.78-8.3,12.91-8.3S234.77,102.06,234.77,106.64Z" transform="translate(-35.46 -19.43)"/><path class="cls-2" d="M341.2,194.67c-13.85-50.14-62.21-87.15-119.74-87.15s-105.88,37-119.73,87.15Z" transform="translate(-35.46 -19.43)"/><path class="cls-4" d="M308,140.84a55.74,55.74,0,0,1-20,23c-12.17,7.91-26.56,12.92-40.91,15.95s-29.93,4.49-44.59,1.83c-6.11-1.11-12.6-2.9-17.75-6.33A31.11,31.11,0,0,1,173,160.2c-4.72-12.59-3.46-27.65,2.6-39.65a49.56,49.56,0,0,1,3.63-6c-37.92,13-67.19,43-77.47,80.16H341.2A115.21,115.21,0,0,0,308,140.84Z" transform="translate(-35.46 -19.43)"/><path class="cls-2" d="M184.56,72.46c-1.29,28.7-28.79,50.91-28.79,50.91s-25.4-24.32-24.11-53,28.79-50.91,28.79-50.91S185.85,43.76,184.56,72.46Z" transform="translate(-35.46 -19.43)"/><path class="cls-5" d="M155.84,41.39a59.88,59.88,0,0,0-5.4,18.76c-.36,3.11-.56,6.26-.66,9.39a51.32,51.32,0,0,0,.52,10.36,23.44,23.44,0,0,0,3.47,9.33,14.79,14.79,0,0,0,7.7,5.65,17.69,17.69,0,0,0,12.14-.51c4.1-6.71,7.48-14.82,7.88-23.66.83-18.55-11.69-34.9-17.38-41.34A42.08,42.08,0,0,0,155.84,41.39Z" transform="translate(-35.46 -19.43)"/><path class="cls-4" d="M156.21,99.75c-6.74-4.26-9.08-12.16-9.77-19.4a81.18,81.18,0,0,1-.09-12.18c.21-3.66.44-7.33,1-11a71.72,71.72,0,0,1,7.13-22,50,50,0,0,1,9-12.56c-1.86-2.1-3.06-3.25-3.06-3.25S133,41.64,131.66,70.34s24.11,53,24.11,53a97.44,97.44,0,0,0,19-22A21.18,21.18,0,0,1,156.21,99.75Z" transform="translate(-35.46 -19.43)"/><path class="cls-6" d="M147.21,35.72l.17.14.47.4.71.64.91.83,1.07,1,1.17,1.12.61.61c.21.2.41.41.62.62.42.41.84.84,1.26,1.27l1.25,1.29.6.64.58.63,1.1,1.19,1,1.09c.3.33.57.65.8.92l.61.73.39.47.13.17-.16-.14-.47-.41c-.2-.17-.44-.38-.71-.63s-.59-.52-.91-.83l-1.07-1c-.37-.36-.77-.73-1.17-1.13l-.61-.6c-.21-.2-.42-.41-.62-.62-.42-.42-.85-.85-1.26-1.28l-1.25-1.29-.6-.63-.58-.63c-.39-.41-.75-.81-1.1-1.2s-.67-.74-1-1.08l-.81-.93-.6-.72-.39-.47Z" transform="translate(-35.46 -19.43)"/><path class="cls-7" d="M145.45,41l.17.14.46.4.72.64.91.83,1.07,1c.37.35.76.73,1.16,1.13.21.19.41.4.62.6l.62.62,1.26,1.27c.42.43.84.86,1.24,1.29l.61.64.58.63L156,51.34c.35.38.67.75,1,1.09s.56.65.8.92l.61.73c.17.2.3.36.38.47l.14.17-.17-.14-.46-.4-.72-.64-.91-.83c-.33-.31-.69-.64-1.06-1s-.77-.73-1.17-1.13l-.62-.6-.62-.62-1.26-1.28-1.24-1.29c-.2-.21-.41-.42-.6-.63l-.59-.63-1.09-1.19-1-1.09-.8-.93c-.24-.27-.44-.52-.61-.72s-.29-.36-.38-.47Z" transform="translate(-35.46 -19.43)"/><path class="cls-8" d="M143.21,46.18l.19.17.53.46.81.74c.31.29.67.61,1,1L147,49.67c.43.41.88.85,1.34,1.31l.7.69.72.71,1.45,1.47,1.43,1.49.69.73.68.72,1.27,1.37,1.11,1.24.94,1.06.71.83.44.54a2.28,2.28,0,0,1,.16.19l-.19-.17-.53-.46-.81-.74c-.31-.29-.67-.61-1-1l-1.22-1.15-1.34-1.3-.71-.7-.71-.71-1.45-1.47-1.43-1.49-.69-.73-.68-.72c-.44-.47-.87-.93-1.26-1.37l-1.12-1.24-.93-1.06-.71-.83-.45-.53Z" transform="translate(-35.46 -19.43)"/><path class="cls-9" d="M141.93,51.44l.2.18.58.52.89.81c.33.32.72.67,1.13,1.07s.86.81,1.33,1.27l1.47,1.43.77.76.78.79c.53.52,1.06,1.07,1.59,1.61l1.57,1.62.76.81.74.78,1.39,1.5L156.36,66c.38.42.73.81,1,1.16s.57.65.78.9l.5.58.17.21-.2-.18-.58-.51-.89-.81c-.34-.32-.72-.67-1.13-1.07L154.7,65l-1.46-1.43-.77-.76-.78-.79-1.59-1.61c-.53-.54-1-1.09-1.57-1.63l-.76-.8-.74-.79c-.49-.51-.95-1-1.39-1.5s-.85-.93-1.23-1.35-.73-.81-1-1.16l-.79-.9-.49-.59Z" transform="translate(-35.46 -19.43)"/><path class="cls-10" d="M140.16,56.68l.22.2.62.56,1,.89,1.23,1.15,1.43,1.38c.51.5,1,1,1.59,1.56.28.27.55.55.83.83s.57.56.85.85c.57.57,1.15,1.16,1.72,1.75s1.14,1.17,1.7,1.76l.83.86.8.86c.53.55,1,1.1,1.51,1.62s.93,1,1.34,1.46.79.88,1.12,1.26l.85,1c.24.27.42.49.54.63l.19.23-.22-.2-.62-.56-1-.89-1.22-1.15L154,71.32c-.51-.49-1-1-1.59-1.56l-.83-.83c-.28-.28-.57-.56-.85-.85L149,66.34l-1.7-1.77-.83-.87-.8-.85-1.51-1.62-1.34-1.47-1.12-1.25-.85-1c-.23-.27-.41-.49-.54-.63Z" transform="translate(-35.46 -19.43)"/><path class="cls-11" d="M138.4,61.93l.23.2.65.6,1,.93c.38.36.82.77,1.28,1.22s1,.93,1.51,1.45,1.1,1.07,1.67,1.64l.88.87.89.9,1.81,1.84,1.79,1.85.87.92.85.89,1.59,1.7,1.41,1.55L156,79.8l.9,1,.57.67.2.23-.23-.21-.66-.59-1-.93-1.29-1.22L153,77.32l-1.67-1.64q-.42-.44-.87-.87l-.89-.9c-.6-.61-1.21-1.22-1.81-1.84L146,70.22l-.87-.92-.85-.89c-.55-.59-1.09-1.16-1.59-1.71s-1-1.06-1.41-1.54l-1.18-1.31-.9-1-.57-.66Z" transform="translate(-35.46 -19.43)"/><path class="cls-12" d="M136.63,67.17l.25.22.68.62c.29.27.65.6,1.05,1L140,70.28l1.58,1.53,1.76,1.73c.3.3.6.61.92.92l.93.94,1.91,1.93,1.88,2,.92,1,.89.94,1.68,1.8c.53.57,1,1.11,1.48,1.62L155.17,86c.37.41.68.77.94,1.07l.61.7.21.24a2.92,2.92,0,0,1-.24-.22l-.69-.62-1.05-1-1.36-1.29L152,83.35l-1.75-1.73-.92-.92-.94-.94-1.9-1.93-1.89-2-.91-1-.9-1-1.67-1.79-1.49-1.62c-.46-.5-.87-1-1.24-1.38l-1-1.07-.6-.7Z" transform="translate(-35.46 -19.43)"/><path class="cls-13" d="M134.87,72.41l.26.23c.17.16.42.38.73.68L137,74.37c.43.41.92.87,1.44,1.38l1.7,1.64L142,79.24l1,1,1,1,2,2.07,2,2.09,1,1,1,1c.63.66,1.23,1.31,1.8,1.92s1.1,1.19,1.59,1.73.94,1,1.34,1.47l1,1.14c.28.32.49.57.65.74l.22.27-.26-.24-.73-.67-1.12-1c-.43-.41-.92-.87-1.44-1.38l-1.7-1.64-1.87-1.85-1-1c-.33-.34-.67-.67-1-1l-2-2.07-2-2.08-1-1-.95-1-1.8-1.92c-.57-.61-1.1-1.19-1.59-1.73l-1.33-1.47c-.4-.44-.74-.83-1-1.15s-.5-.57-.65-.74Z" transform="translate(-35.46 -19.43)"/><path class="cls-14" d="M135.29,79.9l.27.23.72.67,1.11,1,1.44,1.37,1.67,1.63q.9.87,1.86,1.83l1,1,1,1,2,2,2,2.07,1,1,.94,1,1.79,1.9,1.58,1.72c.49.53.93,1,1.32,1.46l1,1.13.65.74.22.26-.26-.23-.72-.67-1.11-1-1.44-1.37-1.68-1.63c-.59-.58-1.22-1.19-1.86-1.83l-1-1c-.33-.33-.67-.66-1-1-.67-.67-1.34-1.36-2-2l-2-2.07-1-1-.95-1-1.78-1.9-1.58-1.72c-.49-.53-.93-1-1.32-1.46s-.74-.82-1-1.14-.5-.56-.65-.73S135.29,79.9,135.29,79.9Z" transform="translate(-35.46 -19.43)"/><path class="cls-15" d="M138.26,89.24l.22.2c.14.13.36.32.62.57l1,.88,1.24,1.17c.45.42.93.89,1.44,1.38s1,1,1.6,1.57l.83.83.85.85c.58.58,1.15,1.17,1.73,1.76s1.15,1.18,1.71,1.77l.83.87.81.86,1.52,1.63c.48.52.93,1,1.34,1.47s.79.88,1.12,1.26.62.7.86,1l.55.64c.12.15.19.22.19.22l-.23-.19-.62-.57c-.27-.24-.6-.54-1-.89l-1.24-1.16L152.19,104l-1.59-1.57-.84-.83-.85-.86-1.73-1.75-1.71-1.77c-.28-.29-.55-.59-.83-.87l-.81-.86c-.53-.56-1-1.11-1.51-1.63L141,92.34l-1.12-1.26c-.34-.37-.62-.7-.86-1s-.42-.48-.54-.63Z" transform="translate(-35.46 -19.43)"/><path class="cls-16" d="M144.43,101.75l.16.12c.09.09.24.2.42.36l.64.56.82.74c.3.27.62.57.95.89s.7.65,1.05,1l.55.54.56.55c.38.37.75.76,1.13,1.14l1.1,1.15q.28.28.54.57c.18.19.35.38.53.56l1,1.07.85,1c.27.3.5.58.71.83s.39.47.54.65l.34.43.12.15-.15-.12-.42-.36-.64-.56c-.25-.22-.53-.46-.82-.74l-1-.89c-.34-.31-.69-.65-1-1l-.55-.54c-.18-.18-.37-.36-.55-.55-.38-.37-.75-.76-1.13-1.14L149,107l-.54-.57-.52-.56-1-1.08-.86-1-.71-.83-.54-.65-.34-.43A1.22,1.22,0,0,0,144.43,101.75Z" transform="translate(-35.46 -19.43)"/><path class="cls-17" d="M172.23,37.82l-.18.13-.5.37-.77.57-1,.76c-.36.28-.75.58-1.15.91s-.83.67-1.27,1l-.67.55-.67.57c-.46.38-.91.77-1.37,1.17l-1.35,1.18-.66.59-.64.58-1.2,1.1c-.38.35-.73.69-1,1l-.89.86c-.26.25-.49.48-.67.67l-.43.44-.15.15.18-.12.5-.37c.22-.15.48-.34.77-.57s.63-.48,1-.76.75-.58,1.15-.91.84-.67,1.27-1l.67-.55.67-.57c.46-.38.92-.77,1.37-1.17s.91-.79,1.35-1.18l.66-.59.64-.58L169,41l1.06-1,.88-.86c.26-.25.49-.48.67-.67l.43-.44Z" transform="translate(-35.46 -19.43)"/><path class="cls-18" d="M173.52,43.19l-.19.12-.49.37-.77.57-1,.76-1.16.91-1.26,1-.67.55-.67.57c-.46.38-.91.78-1.37,1.17l-1.36,1.19L164,51l-.64.58-1.2,1.1-1.06,1c-.33.31-.62.6-.88.86l-.67.67-.43.44-.15.16.18-.13.5-.36.77-.58,1-.75,1.15-.91,1.27-1,.66-.55.68-.57,1.37-1.17,1.35-1.19.66-.59.64-.58,1.2-1.1,1-1,.89-.86.67-.68.43-.43A1.28,1.28,0,0,1,173.52,43.19Z" transform="translate(-35.46 -19.43)"/><path class="cls-19" d="M175.28,48.57l-.2.15-.57.42-.88.67-1.12.88-1.32,1.05-1.45,1.2-.77.63-.77.66c-.53.44-1,.89-1.58,1.35l-1.56,1.36-.76.68-.73.66c-.49.43-.95.86-1.39,1.26s-.85.79-1.22,1.15l-1,1-.78.77-.49.5-.18.18.21-.15.57-.42.87-.67c.34-.26.72-.55,1.13-.88l1.32-1,1.45-1.2.76-.63.78-.66,1.57-1.35,1.56-1.36.76-.68.74-.66c.48-.43.94-.86,1.38-1.27s.85-.79,1.22-1.14l1-1,.78-.77c.22-.21.38-.39.5-.5Z" transform="translate(-35.46 -19.43)"/><path class="cls-20" d="M176.09,53.91l-.22.17c-.15.11-.36.26-.62.47s-.6.45-1,.74l-1.23,1-1.44,1.16L170,58.72l-.83.7-.85.72-1.73,1.48-1.71,1.5-.83.74-.81.72L161.75,66l-1.35,1.26-1.13,1.07-.86.83-.55.55a2.58,2.58,0,0,1-.19.19l.22-.16c.15-.11.36-.26.62-.47l1-.74,1.23-1,1.44-1.16,1.59-1.32.83-.69.85-.72,1.73-1.48,1.71-1.5.83-.74.81-.72c.53-.48,1-.94,1.52-1.39s.94-.86,1.35-1.25l1.13-1.07.86-.84.55-.54Z" transform="translate(-35.46 -19.43)"/><path class="cls-21" d="M177.38,59.28l-.24.18c-.16.11-.39.29-.67.51l-1,.8-1.32,1.06q-.74.57-1.56,1.26l-1.72,1.42-.9.76c-.31.25-.62.52-.92.78-.62.52-1.25,1.06-1.87,1.6l-1.86,1.62-.9.8-.88.78-1.65,1.5-1.46,1.35-1.23,1.16-.93.9-.6.59-.21.21.24-.18.67-.51,1-.8L160.69,74l1.56-1.26L164,71.33l.9-.76.92-.78,1.87-1.6,1.85-1.63.91-.79.87-.79c.58-.51,1.13-1,1.65-1.49s1-.94,1.47-1.36L175.63,61l.94-.91.6-.58Z" transform="translate(-35.46 -19.43)"/><path class="cls-22" d="M178.66,64.64l-.25.19-.7.54-1.09.85-1.39,1.11c-.51.41-1.06.85-1.63,1.33s-1.19,1-1.81,1.5l-.95.8-1,.82-2,1.69c-.65.57-1.31,1.13-2,1.7L165,76l-.92.83c-.61.54-1.19,1.07-1.74,1.57l-1.55,1.42c-.47.44-.91.85-1.29,1.22l-1,.94-.63.62-.22.22.25-.19.71-.54,1.08-.85c.42-.33.89-.7,1.39-1.11l1.64-1.33c.58-.47,1.18-1,1.81-1.5l1-.8,1-.82c.65-.55,1.31-1.12,2-1.69l2-1.7.95-.84.93-.83c.61-.54,1.19-1.07,1.74-1.57l1.54-1.42,1.3-1.22,1-.94.63-.62C178.59,64.72,178.66,64.64,178.66,64.64Z" transform="translate(-35.46 -19.43)"/><path class="cls-23" d="M180,70l-.26.2-.74.57-1.14.9-1.46,1.17-1.72,1.4-1.9,1.58-1,.84-1,.87-2.07,1.77c-.69.6-1.38,1.2-2,1.8l-1,.88-1,.87-1.83,1.65L161.16,86l-1.36,1.28-1.05,1-.66.65-.23.23.26-.2.74-.57,1.14-.9,1.46-1.17,1.72-1.4,1.9-1.58c.32-.28.66-.56,1-.84s.67-.57,1-.87c.69-.58,1.38-1.18,2.07-1.77l2.06-1.8,1-.88,1-.87L175,74.64c.58-.52,1.12-1,1.63-1.49L178,71.87l1-1,.67-.65Z" transform="translate(-35.46 -19.43)"/><path class="cls-24" d="M181.24,75.37l-.28.21-.79.61-1.22,1-1.55,1.26-1.84,1.5-2,1.7-1.07.9-1.09.92-2.21,1.9c-.74.64-1.48,1.28-2.2,1.92l-1.07,1-1,.92c-.69.61-1.34,1.2-2,1.77s-1.21,1.1-1.74,1.59l-1.47,1.36-1.11,1.06-.72.69-.25.25.28-.22.79-.61,1.21-1c.47-.37,1-.79,1.56-1.26s1.19-1,1.84-1.5l2-1.69,1.07-.9,1.09-.93,2.21-1.9c.74-.64,1.48-1.28,2.2-1.92.35-.32.71-.63,1.07-.94l1-.93c.68-.61,1.34-1.2,2-1.77l1.74-1.59,1.47-1.36,1.11-1.06.72-.69Z" transform="translate(-35.46 -19.43)"/><path class="cls-25" d="M180.14,82.79l-.28.22-.78.6-1.2,1c-.47.37-1,.78-1.55,1.24l-1.82,1.49-2,1.68-1.06.9-1.08.92c-.73.61-1.46,1.25-2.2,1.88L166,94.58l-1.06.94-1,.92-1.95,1.75-1.73,1.59-1.45,1.35-1.11,1.05-.7.68-.25.25.28-.22.78-.6,1.2-1c.47-.37,1-.78,1.55-1.25s1.18-1,1.82-1.48l2-1.68,1.06-.9,1.08-.92,2.19-1.88c.73-.64,1.47-1.27,2.18-1.9l1.07-.94,1-.92,2-1.75,1.72-1.59,1.46-1.35c.43-.4.8-.76,1.1-1l.71-.68Z" transform="translate(-35.46 -19.43)"/><path class="cls-26" d="M176.35,91.87l-.24.18c-.16.12-.39.29-.67.52l-1,.8-1.33,1.06L171.5,95.7l-1.72,1.43-.91.76-.93.79c-.62.52-1.25,1.07-1.88,1.61l-1.86,1.62-.91.81-.88.78L160.75,105l-1.47,1.36-1.23,1.16-.94.91-.6.59c-.14.13-.21.21-.21.21a2.87,2.87,0,0,1,.24-.18c.16-.12.39-.29.67-.52l1-.8,1.33-1.06,1.57-1.27,1.73-1.43.9-.76.93-.79c.62-.52,1.25-1.07,1.88-1.61l1.86-1.63.91-.8.88-.79,1.66-1.5,1.47-1.36,1.23-1.16.94-.91.6-.59C176.28,92,176.35,91.87,176.35,91.87Z" transform="translate(-35.46 -19.43)"/><path class="cls-27" d="M169.07,103.84l-.16.11-.45.32-.69.51-.89.67-1,.81-1.13.92-.6.49-.6.5-1.23,1-1.21,1.06-.58.53-.57.51c-.38.34-.73.67-1.07,1l-.94.9-.78.78-.6.6-.37.4-.13.14.16-.11.45-.32.69-.51.88-.67,1-.81,1.14-.91c.2-.17.39-.33.6-.49l.6-.51c.41-.34.82-.7,1.22-1s.82-.7,1.21-1.06l.59-.52.57-.52c.37-.34.73-.67,1.06-1l.94-.9c.29-.28.56-.54.79-.78l.59-.6.38-.4Z" transform="translate(-35.46 -19.43)"/><path class="cls-28" d="M160.36,21.35s0,.38,0,1.08.06,1.75.07,3.07.07,2.93.07,4.76,0,3.92,0,6.18,0,4.71-.05,7.3-.09,5.32-.16,8.14c0,1.42-.08,2.85-.12,4.3s-.1,2.93-.14,4.41c-.1,3-.23,6-.36,9s-.28,6-.45,9c-.08,1.48-.16,3-.25,4.4s-.18,2.89-.27,4.29c-.18,2.83-.37,5.55-.57,8.13s-.4,5-.6,7.28-.39,4.32-.57,6.16-.35,3.42-.49,4.74-.27,2.34-.36,3l-.13,1.08s0-.38,0-1.08-.06-1.75-.08-3.07-.06-2.92-.07-4.76,0-3.92,0-6.18,0-4.71,0-7.3S156,90,156,87.15c.05-1.41.09-2.85.12-4.3s.09-2.93.15-4.41c.1-3,.23-6,.36-9s.28-6,.45-9c.09-1.48.17-2.95.25-4.4s.18-2.88.27-4.29c.18-2.82.38-5.55.57-8.13s.41-5,.6-7.28.39-4.32.57-6.15.35-3.43.49-4.74.27-2.35.35-3.05Z" transform="translate(-35.46 -19.43)"/><path class="cls-2" d="M116.57,78.72c28.14,11,40.79,43,40.79,43s-33,14.11-61.12,3.08-40.78-43-40.78-43S88.43,67.69,116.57,78.72Z" transform="translate(-35.46 -19.43)"/><path class="cls-29" d="M75.73,93.43a66.85,66.85,0,0,0,16.83,11.25c3,1.39,6,2.65,9.12,3.81a59.5,59.5,0,0,0,10.5,3.11,27,27,0,0,0,10.49.14,15,15,0,0,0,8.28-4.86A15.26,15.26,0,0,0,134.62,96a55.25,55.25,0,0,0-20.85-15.12C95.59,73.71,75,79.16,66.61,82A42.62,42.62,0,0,0,75.73,93.43Z" transform="translate(-35.46 -19.43)"/><path class="cls-4" d="M134,113.21c-6.57,4.5-15.24,3.85-22.69,2a93.47,93.47,0,0,1-12.16-4.11c-3.57-1.45-7.15-2.91-10.57-4.67A79.57,79.57,0,0,1,69.15,92.52,50.7,50.7,0,0,1,59.74,80.2c-2.72.93-4.28,1.6-4.28,1.6s12.65,32,40.78,43,61.12-3.08,61.12-3.08A94.6,94.6,0,0,0,142,97.31,18.57,18.57,0,0,1,134,113.21Z" transform="translate(-35.46 -19.43)"/><path class="cls-2" d="M67.12,99.12l.2-.1.56-.28.87-.41,1.15-.52,1.36-.6c.48-.21,1-.43,1.53-.64.26-.12.53-.23.81-.34l.83-.34,1.7-.67,1.72-.66.84-.31.82-.3,1.57-.56,1.41-.48,1.2-.39.93-.29.6-.18.22-.06-.2.1-.56.27-.88.42-1.14.52-1.36.6-1.53.64-.81.34-.83.33-1.7.68-1.72.65-.84.32-.83.3-1.56.56-1.41.48-1.2.39-.93.29-.61.18A1.26,1.26,0,0,0,67.12,99.12Z" transform="translate(-35.46 -19.43)"/><path class="cls-2" d="M71.73,102.48l.2-.1.56-.27.88-.41c.33-.16.72-.34,1.14-.52l1.36-.6,1.53-.65.81-.33.83-.34,1.7-.68,1.72-.65.84-.32.82-.3,1.57-.55,1.41-.48,1.2-.39.93-.3.61-.17.21-.07-.2.1c-.13.07-.31.17-.56.28s-.53.26-.87.41l-1.15.52-1.36.6-1.52.65-.82.33-.83.34-1.7.68-1.72.65-.84.31-.82.3-1.57.56-1.41.48-1.2.39-.93.29-.6.18Z" transform="translate(-35.46 -19.43)"/><path class="cls-2" d="M76.16,106.27l.23-.12.65-.3,1-.47,1.32-.59,1.57-.68,1.76-.73.93-.39,1-.39,2-.77,2-.76,1-.36.94-.35,1.81-.65,1.62-.56,1.37-.46,1.07-.34.69-.21.25-.08-.23.11-.65.31-1,.47L94,99.54l-1.58.68L90.7,101l-.93.38-1,.39-2,.77-2,.75-1,.37L83,104l-1.8.64-1.62.57-1.38.46L77.1,106l-.69.21Z" transform="translate(-35.46 -19.43)"/><path class="cls-2" d="M81,109.22l.25-.13.71-.33,1.12-.5c.42-.2.91-.41,1.44-.64l1.73-.74,1.93-.81q.51-.19,1-.42l1.06-.42,2.15-.85,2.16-.83,1.06-.4,1-.38,2-.72,1.78-.62,1.5-.51,1.17-.38.76-.24.26-.08-.25.12-.71.33-1.11.51-1.45.64-1.73.74-1.93.8-1,.42-1.06.42c-.7.29-1.43.57-2.15.85l-2.16.83-1.06.4-1,.39-2,.71c-.63.23-1.23.43-1.78.62l-1.5.51L82,108.9l-.76.23Z" transform="translate(-35.46 -19.43)"/><path class="cls-2" d="M85.57,112.58l.27-.13.78-.35,1.2-.55,1.58-.68,1.87-.8,2.09-.87,1.11-.45,1.14-.46,2.34-.92,2.34-.9,1.15-.43,1.12-.42,2.14-.78,1.92-.67c.59-.22,1.14-.4,1.63-.56s.91-.31,1.26-.42l.82-.26.29-.09-.28.13-.77.35-1.21.54c-.47.21-1,.45-1.57.69l-1.87.8-2.1.87-1.11.45-1.14.46-2.33.91-2.34.9-1.15.44-1.13.41-2.13.78-1.92.68-1.63.56-1.27.42-.81.26Z" transform="translate(-35.46 -19.43)"/><path class="cls-2" d="M90.18,116l.29-.14.81-.37,1.28-.57,1.65-.72,2-.83c.7-.3,1.44-.6,2.21-.91l1.17-.48,1.2-.48,2.45-1,2.47-.94,1.21-.46,1.18-.44,2.25-.82,2-.72,1.71-.59c.51-.18,1-.32,1.33-.44l.86-.28.3-.1-.29.14-.81.37-1.27.57-1.66.72-2,.83c-.7.3-1.44.6-2.21.91l-1.17.48-1.2.48-2.45,1-2.47.94-1.21.46-1.18.44-2.25.82-2,.72-1.71.59c-.51.18-1,.32-1.33.44l-.85.28Z" transform="translate(-35.46 -19.43)"/><path class="cls-2" d="M94.79,119.31l.31-.14.85-.39,1.34-.59,1.75-.76,2.07-.87,2.33-1,1.23-.5,1.26-.5,2.58-1,2.59-1,1.27-.48,1.25-.47,2.36-.87,2.13-.75c.65-.24,1.26-.44,1.8-.63l1.39-.47.9-.29.32-.11-.3.15c-.2.08-.49.22-.86.39l-1.34.59-1.74.75-2.08.88-2.32,1-1.23.49-1.26.51-2.58,1c-.87.34-1.74.68-2.6,1l-1.27.48-1.24.47-2.37.86c-.75.28-1.46.53-2.12.76l-1.8.63-1.4.47-.9.29Z" transform="translate(-35.46 -19.43)"/><path class="cls-2" d="M99.4,122.68l.33-.15.92-.41,1.44-.63,1.86-.81,2.22-.93,2.49-1,1.32-.53,1.35-.54,2.76-1.09,2.77-1.06,1.36-.52,1.34-.5,2.52-.93,2.27-.81,1.93-.68,1.49-.5,1-.32.34-.11-.32.15-.92.41-1.44.63-1.87.8c-.68.3-1.43.61-2.22.94l-2.48,1-1.32.53-1.35.54-2.77,1.09-2.77,1.06-1.36.52-1.33.49-2.52.93-2.28.82-1.92.67-1.49.51-1,.32Z" transform="translate(-35.46 -19.43)"/><path class="cls-2" d="M107,124.88l.32-.15.92-.41c.39-.17.87-.39,1.42-.62l1.86-.8,2.2-.93,2.46-1,1.31-.53,1.34-.53,2.74-1.08,2.75-1.06,1.35-.51,1.32-.49,2.51-.93,2.25-.8,1.91-.67,1.48-.51,1-.31.34-.11-.33.15-.91.41c-.39.17-.87.39-1.42.62l-1.86.8-2.2.93-2.47,1-1.3.53-1.34.53-2.74,1.08-2.76,1.06-1.34.51-1.33.49c-.86.33-1.7.64-2.5.93l-2.26.81-1.91.66-1.48.5c-.41.15-.73.25-1,.32Z" transform="translate(-35.46 -19.43)"/><path class="cls-2" d="M117.34,125.48l.27-.13.78-.36,1.21-.54,1.59-.69,1.87-.8c.67-.28,1.38-.58,2.11-.87l1.12-.46,1.14-.46,2.34-.92,2.35-.9,1.16-.44,1.13-.42,2.15-.78c.68-.25,1.33-.47,1.93-.68l1.63-.57,1.28-.42.81-.26.3-.09-.28.13-.78.36-1.21.54-1.58.69-1.88.8-2.11.88-1.11.45-1.15.46-2.34.92-2.35.9-1.16.44-1.13.42-2.14.78-1.94.68-1.64.57-1.26.42-.82.26Z" transform="translate(-35.46 -19.43)"/><path class="cls-2" d="M131.92,124.32l.18-.09.49-.25.79-.37c.3-.15.64-.31,1-.47l1.22-.55L137,122l.72-.3.74-.3,1.52-.61,1.54-.58.75-.28.74-.27,1.4-.49c.45-.16.87-.29,1.26-.42l1.08-.35.83-.25.54-.15.19-.05-.17.09-.5.24-.78.38-1,.47c-.37.17-.78.36-1.21.54l-1.36.59-.73.3-.74.3-1.52.6-1.53.59-.75.28-.74.26-1.4.5-1.27.42-1.07.34-.84.25-.54.16Z" transform="translate(-35.46 -19.43)"/><path class="cls-2" d="M77.83,77.7l.07.21c0,.13.1.32.19.57s.18.54.3.87.26.72.42,1.13.32.86.51,1.33.38,1,.59,1.48c.1.26.21.52.32.78l.33.79c.23.54.46,1.08.7,1.62s.47,1.08.71,1.6l.36.79.36.76c.23.51.46,1,.68,1.44s.44.89.64,1.29.38.75.55,1.08.31.59.44.82.22.41.29.53a1.94,1.94,0,0,1,.1.19s0-.08-.06-.21-.11-.32-.19-.56l-.31-.88-.41-1.13-.51-1.33-.59-1.48L83,88.61c-.11-.26-.22-.53-.34-.79-.22-.54-.46-1.08-.69-1.62s-.48-1.08-.72-1.6l-.36-.79c-.12-.26-.23-.51-.35-.76-.23-.5-.47-1-.69-1.44l-.63-1.29-.55-1.07-.44-.83c-.12-.23-.23-.4-.29-.53Z" transform="translate(-35.46 -19.43)"/><path class="cls-2" d="M83.62,78.41l.06.21c0,.13.11.32.19.56s.19.54.31.88l.41,1.13.51,1.33L85.7,84l.31.78c.11.26.22.53.34.79.22.54.46,1.08.69,1.62s.48,1.08.72,1.6c.12.27.23.53.36.79s.23.51.35.76c.23.5.46,1,.69,1.44s.43.89.63,1.28l.55,1.08.44.83c.12.23.23.41.29.53l.11.18s0-.07-.07-.2-.1-.32-.19-.57-.18-.54-.3-.87-.26-.72-.42-1.13-.32-.86-.51-1.34-.38-1-.59-1.47c-.1-.26-.21-.52-.32-.78l-.33-.8c-.23-.53-.46-1.07-.7-1.61s-.47-1.08-.71-1.61l-.36-.78-.36-.76c-.23-.51-.46-1-.68-1.44S85.2,81.43,85,81s-.38-.75-.55-1.07-.32-.6-.44-.83-.22-.41-.29-.53A1.94,1.94,0,0,1,83.62,78.41Z" transform="translate(-35.46 -19.43)"/><path class="cls-2" d="M89.58,78.71l.08.23c.06.15.13.37.23.65l.36,1c.14.39.31.83.49,1.3s.38,1,.6,1.53.44,1.11.68,1.7c.13.29.25.59.37.89l.39.91c.26.62.53,1.24.8,1.86s.55,1.24.82,1.85c.14.31.28.61.41.91s.27.59.41.88c.26.57.53,1.13.78,1.66l.72,1.48.63,1.24c.18.37.35.69.49,1l.33.61a1.72,1.72,0,0,0,.12.21l-.08-.23L98,97.7l-.36-1c-.14-.38-.31-.82-.49-1.29s-.38-1-.59-1.53l-.69-1.7c-.12-.29-.25-.59-.37-.89l-.39-.92-.8-1.86c-.27-.62-.55-1.23-.82-1.85l-.41-.9c-.14-.3-.27-.59-.41-.88l-.78-1.66c-.25-.53-.49-1-.72-1.48s-.44-.87-.62-1.24l-.5-1-.33-.61Z" transform="translate(-35.46 -19.43)"/><path class="cls-2" d="M95.19,79.83l.08.25c.06.17.14.41.26.71s.24.68.4,1.11.34.9.54,1.41.42,1.09.66,1.68.49,1.22.76,1.86l.41,1,.42,1,.88,2c.3.68.6,1.36.9,2l.45,1c.15.32.3.64.44,1,.29.64.58,1.25.86,1.82s.53,1.13.78,1.63.47,1,.68,1.37l.53,1c.15.29.28.51.36.67l.13.23a1.68,1.68,0,0,1-.09-.25c-.06-.16-.14-.41-.25-.71s-.25-.68-.41-1.1l-.54-1.42q-.3-.78-.66-1.68c-.24-.59-.49-1.21-.76-1.85-.13-.33-.27-.65-.4-1l-.43-1c-.28-.68-.58-1.36-.88-2l-.9-2-.45-1c-.15-.33-.3-.65-.44-1l-.85-1.82c-.28-.58-.54-1.12-.79-1.62s-.48-1-.68-1.37-.38-.76-.53-1.05-.28-.52-.36-.67Z" transform="translate(-35.46 -19.43)"/><path class="cls-2" d="M101,80.54l.09.27c.07.18.16.44.28.77s.27.73.45,1.19.37,1,.59,1.54.46,1.17.72,1.81.53,1.32.82,2l.45,1.06.46,1.09c.31.73.63,1.47,1,2.2s.65,1.48,1,2.2l.48,1.08.48,1c.32.69.62,1.35.92,2s.58,1.22.85,1.76.51,1,.73,1.49.41.82.57,1.13.29.57.38.73l.14.26-.1-.27c-.06-.18-.15-.44-.28-.77l-.44-1.19c-.17-.46-.37-1-.59-1.54s-.46-1.17-.72-1.81-.54-1.32-.83-2c-.14-.35-.29-.7-.44-1.06s-.31-.72-.46-1.09c-.31-.73-.64-1.46-1-2.2l-1-2.2L105,88.93l-.47-1-.93-2c-.29-.62-.58-1.22-.84-1.76s-.51-1-.73-1.48-.42-.83-.58-1.14l-.37-.73Z" transform="translate(-35.46 -19.43)"/><path class="cls-2" d="M106.75,81.25l.11.28c.06.19.16.47.29.81s.28.77.47,1.25l.63,1.62c.23.59.49,1.23.76,1.9s.57,1.39.87,2.12c.15.37.31.74.47,1.12s.32.75.48,1.14c.33.77.67,1.54,1,2.32s.68,1.55,1,2.31l.51,1.14.51,1.1c.33.72.65,1.42,1,2.08s.61,1.28.89,1.85.53,1.1.76,1.57.44.87.6,1.2l.4.77.14.27-.1-.29c-.07-.19-.16-.46-.3-.81s-.28-.77-.46-1.25l-.63-1.62c-.23-.59-.49-1.23-.76-1.9s-.57-1.38-.87-2.12c-.16-.36-.31-.74-.47-1.11s-.32-.76-.49-1.14c-.32-.77-.66-1.55-1-2.33s-.68-1.55-1-2.31L111,90.09c-.17-.37-.33-.74-.5-1.1-.33-.73-.66-1.42-1-2.08l-.88-1.86-.77-1.56c-.22-.47-.43-.87-.6-1.2l-.39-.77Z" transform="translate(-35.46 -19.43)"/><path class="cls-2" d="M112.54,82l.11.3c.07.19.17.48.31.85s.3.81.5,1.31.41,1.08.66,1.7.52,1.29.8,2,.6,1.46.93,2.23c.16.39.32.78.49,1.17l.51,1.2c.34.81.7,1.63,1.05,2.44s.72,1.64,1.08,2.44l.54,1.19c.18.39.35.78.53,1.16.34.76.68,1.49,1,2.19l.93,2c.29.61.56,1.16.8,1.65s.45.91.63,1.26l.41.81.15.29s0-.11-.1-.3-.18-.49-.32-.85-.3-.81-.5-1.32-.41-1.08-.66-1.7-.51-1.29-.8-2-.6-1.45-.92-2.22c-.17-.39-.33-.78-.5-1.18s-.33-.8-.51-1.2c-.34-.81-.7-1.62-1-2.44l-1.08-2.44L117,91.26l-.53-1.16c-.35-.76-.68-1.49-1-2.18l-.93-2-.8-1.64c-.24-.49-.45-.92-.63-1.27s-.32-.62-.41-.81Z" transform="translate(-35.46 -19.43)"/><path class="cls-2" d="M118.32,82.66l.12.33.34.9c.15.39.32.87.54,1.41s.44,1.15.71,1.81l.86,2.14c.31.76.65,1.56,1,2.39l.53,1.25c.18.42.36.85.55,1.28.37.87.75,1.74,1.13,2.62s.77,1.74,1.15,2.6c.19.43.38.86.57,1.27s.38.84.57,1.24c.37.82.73,1.6,1.08,2.35s.68,1.44,1,2.09.59,1.24.85,1.76.48,1,.67,1.36.34.66.44.87l.16.3s0-.11-.12-.32-.19-.52-.34-.91l-.54-1.4c-.21-.54-.44-1.16-.71-1.82s-.55-1.38-.87-2.14l-1-2.38c-.18-.41-.35-.83-.53-1.26s-.36-.85-.55-1.28l-1.13-2.61c-.39-.87-.77-1.75-1.15-2.61-.2-.42-.39-.85-.57-1.27s-.38-.83-.57-1.24c-.37-.81-.73-1.6-1.08-2.34l-1-2.1c-.31-.64-.6-1.23-.85-1.76s-.48-1-.67-1.35l-.44-.87Z" transform="translate(-35.46 -19.43)"/><path class="cls-2" d="M125.34,86.19l.12.32c.08.21.18.52.33.9l.54,1.4c.21.54.44,1.14.71,1.8s.54,1.37.85,2.12.64,1.55,1,2.37l.53,1.24c.17.42.35.85.54,1.27.36.86.74,1.73,1.12,2.6l1.14,2.58.57,1.27c.19.41.38.82.56,1.23l1.07,2.32c.35.74.68,1.44,1,2.08s.59,1.23.84,1.75.48,1,.67,1.34l.43.86.16.3-.12-.32c-.07-.2-.18-.51-.33-.9s-.32-.85-.53-1.39l-.71-1.8-.86-2.13L134,105l-.52-1.25-.55-1.27c-.36-.85-.74-1.72-1.12-2.59l-1.14-2.58-.57-1.27c-.19-.42-.38-.82-.56-1.23l-1.07-2.32c-.35-.74-.68-1.44-1-2.08s-.59-1.23-.84-1.75-.48-1-.66-1.34l-.44-.86Z" transform="translate(-35.46 -19.43)"/><path class="cls-2" d="M133.08,92.67l.09.28c.07.18.16.44.28.77s.27.74.45,1.19.37,1,.6,1.55.46,1.18.72,1.82l.83,2,.44,1.07c.16.36.31.72.47,1.09l.95,2.21c.33.75.65,1.49,1,2.21l.49,1.08q.24.54.48,1.05c.32.7.63,1.36.93,2s.58,1.22.84,1.77l.74,1.49c.22.45.41.83.58,1.15l.38.73.13.26-.09-.28c-.07-.17-.16-.44-.28-.77s-.27-.73-.45-1.19-.37-1-.6-1.55l-.72-1.82-.83-2-.44-1.07c-.16-.36-.31-.72-.47-1.09l-1-2.21-1-2.21c-.17-.36-.33-.72-.49-1.08s-.33-.71-.48-1c-.32-.69-.63-1.36-.93-2s-.58-1.22-.85-1.77-.51-1-.73-1.49-.41-.83-.58-1.15l-.38-.73C133.12,92.76,133.08,92.67,133.08,92.67Z" transform="translate(-35.46 -19.43)"/><path class="cls-2" d="M142.49,103.24s0,.06,0,.18.09.29.17.51.16.48.26.78.23.65.37,1,.28.77.45,1.19.33.87.52,1.32c.09.23.19.46.29.7l.29.71.62,1.44c.21.48.43,1,.64,1.43.11.24.21.47.32.7s.22.46.32.69l.62,1.28.57,1.14c.18.36.35.68.5,1s.29.54.4.74l.27.47.09.16s0-.06-.05-.18-.09-.29-.17-.51-.16-.48-.27-.78-.22-.65-.36-1-.28-.77-.44-1.19-.34-.86-.53-1.32c-.09-.23-.19-.46-.28-.7l-.3-.71-.62-1.44c-.21-.48-.42-1-.64-1.43-.11-.24-.21-.47-.32-.7s-.21-.46-.32-.68c-.21-.45-.42-.88-.62-1.29s-.39-.79-.57-1.14l-.5-1c-.15-.29-.29-.53-.4-.74l-.26-.47A1.43,1.43,0,0,1,142.49,103.24Z" transform="translate(-35.46 -19.43)"/><path class="cls-2" d="M57.34,82.53l1.09.34c.71.23,1.76.55,3.08,1s2.93,1,4.77,1.58,3.9,1.32,6.15,2.12,4.69,1.63,7.25,2.56S85,92,87.74,93.07L92,94.66l4.34,1.64c2.92,1.11,5.87,2.26,8.83,3.41s5.89,2.32,8.78,3.49l4.3,1.74,4.19,1.72c2.74,1.13,5.39,2.24,7.9,3.3s4.86,2.09,7,3,4.17,1.83,5.93,2.62,3.29,1.5,4.55,2.07,2.24,1,2.91,1.37l1,.49-1.1-.34c-.7-.23-1.75-.55-3.07-1s-2.94-1-4.77-1.58-3.91-1.32-6.15-2.11-4.69-1.64-7.26-2.57-5.27-1.91-8.05-2.94l-4.25-1.59-4.33-1.65c-2.92-1.11-5.87-2.26-8.83-3.41s-5.89-2.33-8.79-3.49l-4.29-1.74L86.7,95.42c-2.75-1.13-5.39-2.24-7.9-3.3s-4.86-2.09-7-3-4.17-1.83-5.93-2.62S62.54,85,61.28,84.39L58.37,83Z" transform="translate(-35.46 -19.43)"/><path class="cls-2" d="M383.47,184c-20,14.14-2.58,79.37-55.5,94.75" transform="translate(-35.46 -19.43)"/><path class="cls-30" d="M383.47,183.81a4.92,4.92,0,0,0-2.71,1.22,18.85,18.85,0,0,0-2.21,2.68,27.06,27.06,0,0,0-3.36,7.45c-2.1,6.6-3.22,13.49-4.5,20.29-2.92,15.53-6.33,32.09-16.84,44.49a47.52,47.52,0,0,1-10.7,9.35c-4.81,3.09-10.25,4.9-15.18,7.77-.37.22-.2,3.37,0,3.37,4.9,0,9.7-2.47,13.78-5a48.76,48.76,0,0,0,10.08-8.25,61.39,61.39,0,0,0,12.38-20.7,144.7,144.7,0,0,0,6.05-23.18c1.36-7.09,2.42-14.27,4.31-21.24a46.81,46.81,0,0,1,8.9-17.87,1,1,0,0,0,0-.38Z" transform="translate(-35.46 -19.43)"/><path class="cls-2" d="M363.84,240.11c-4-4.72-22-32.05-8-33.94,8-.94,9,28.28,8,33.94" transform="translate(-35.46 -19.43)"/><path class="cls-30" d="M363.85,239.89c-2.7-3.93-5.19-8-7.48-12.22a66,66,0,0,1-3.86-8.15c-.84-2.19-1.87-4.82-1.79-7.21.13-3.73,5-6.66,7.88-3.76a13.77,13.77,0,0,1,3,5.92,52.9,52.9,0,0,1,1.7,8.63A90.4,90.4,0,0,1,364,233a33.55,33.55,0,0,1-.21,5.71,10,10,0,0,0-.07,2.26c0,.16.14,1.21.25.59a39.05,39.05,0,0,0,.42-6.92c0-3.33-.14-6.66-.43-10a76,76,0,0,0-1.45-9.95,22.12,22.12,0,0,0-2.8-7.56,4.07,4.07,0,0,0-4.64-2,5.43,5.43,0,0,0-4.25,4.09c-1.38,5.54,1.13,11.66,3.5,16.55a78.15,78.15,0,0,0,5.39,9.35,28.68,28.68,0,0,0,4.17,5.19s.07-.36,0-.44Z" transform="translate(-35.46 -19.43)"/><path class="cls-2" d="M376.43,192.1c-4.83-4.39-29.06-29.29-14.31-35.22,12.86-5.31,15.74,27.74,14,34.33" transform="translate(-35.46 -19.43)"/><path class="cls-30" d="M376.43,191.25a143,143,0,0,1-10.6-11.95,60.08,60.08,0,0,1-5.59-8.37,29.76,29.76,0,0,1-1.91-4.23,17.7,17.7,0,0,1-.54-1.89c-.07-.31-.14-.63-.18-.95,0-.14,0-.75-.05-.38.27-4.5,6.68-7,10.38-4.58,2.08,1.35,3.41,3.67,4.41,5.87a40.89,40.89,0,0,1,2.71,8.86,64.72,64.72,0,0,1,1.26,10.09,18.23,18.23,0,0,1-.32,6,8.39,8.39,0,0,0-.08,2.18c0,.18.19,1.15.23,1a27.39,27.39,0,0,0,.61-7.56A78.94,78.94,0,0,0,376,175a58.76,58.76,0,0,0-2.3-10.34,20.36,20.36,0,0,0-4.12-7.73,6.33,6.33,0,0,0-6.24-2,8.09,8.09,0,0,0-5.72,5.25c-1.74,6.29,1.9,12.76,5.34,17.72a89.6,89.6,0,0,0,7.62,9.44,51,51,0,0,0,5.84,5.64c-.16-.13.3-1.4,0-1.7Z" transform="translate(-35.46 -19.43)"/><path class="cls-2" d="M373.47,212.29c3-9.43,19-22.38,24-16,3,13.2-14,27.34-24,15.08" transform="translate(-35.46 -19.43)"/><path class="cls-30" d="M373.5,213.14a30.62,30.62,0,0,1,8.14-10.89c3.06-2.72,7.06-5.57,11.27-6a5,5,0,0,1,4.2,1.29c1.26,1.4.17,4.21-.47,5.83a17.47,17.47,0,0,1-9.44,9.78,11.68,11.68,0,0,1-7.05.64,13.41,13.41,0,0,1-6.68-4.38s-.2,1.56-.2,1.64c0,.5-.17,1.65.15,2.08a11.48,11.48,0,0,0,13.29,4,17.87,17.87,0,0,0,10.14-10.47A21.6,21.6,0,0,0,398,198.5c0-1.11.05-2.91-.48-3.92a3.61,3.61,0,0,0-1.87-1.38c-4-1.51-8.79,2-11.74,4.34-4.42,3.48-9,8.32-10.46,13.89-.12.44.13,1.51.05,1.71Z" transform="translate(-35.46 -19.43)"/><path class="cls-2" d="M357.47,262.25c8-1.89,29-6.67,31,3.7,2,15.09-29,6.67-32-2.76" transform="translate(-35.46 -19.43)"/><path class="cls-30" d="M357.47,263.33a54.38,54.38,0,0,0,7.35-1.2,70,70,0,0,1,9-1c4.56-.18,11.61-.06,14,4.72.24.48.3,1.05.53,1.51s-.51-.06,0-.47c-.07.05-.08.49-.11.59a5.35,5.35,0,0,1-1.27,2.32,8.59,8.59,0,0,1-4.89,2.3c-4.76.81-9.91-.38-14.36-2.07a29.72,29.72,0,0,1-7.17-3.81,16.23,16.23,0,0,1-4.06-4.56c-.12-.18-.2.87-.21.93a8.3,8.3,0,0,0,.07,2c1,4.48,6.32,7.18,10.17,8.79,4.7,2,10.25,3.35,15.37,2.53a8.37,8.37,0,0,0,5.27-2.61c1.6-1.9,1.65-4.59,1.55-6.95-.1-2.59-.88-4.9-3.11-6.39s-5.26-1.92-8-2a53.9,53.9,0,0,0-11,1,39.77,39.77,0,0,0-9.22,2.29c-.26.11-.11,2.16,0,2.16Z" transform="translate(-35.46 -19.43)"/><path class="cls-2" d="M50,184c20,14.14,2.58,79.37,55.5,94.75" transform="translate(-35.46 -19.43)"/><path class="cls-30" d="M50,184.19c1,1.21,1.82,2.55,2.76,3.8A23.14,23.14,0,0,1,55,191.57a52.24,52.24,0,0,1,3.29,8.24c2.06,6.75,3.14,13.78,4.42,20.7,2.9,15.62,6.56,31.84,16.94,44.37a49.09,49.09,0,0,0,10.69,9.65c4.41,2.93,9.76,5.88,15.19,5.9.21,0,.36-3.16,0-3.37-4.45-2.59-9.35-4.27-13.78-6.9a48,48,0,0,1-10.08-8c-5.67-5.89-9.61-13.24-12.41-20.87-5.23-14.24-6.22-29.44-10.3-44a35.48,35.48,0,0,0-3.53-8.9,18.55,18.55,0,0,0-2.4-3.11,5,5,0,0,0-3-1.53.81.81,0,0,0,0,.38Z" transform="translate(-35.46 -19.43)"/><path class="cls-30" d="M69.67,240.33A25.48,25.48,0,0,0,73.24,236a81.16,81.16,0,0,0,4.88-8c2.76-5.24,5.4-11.15,4.85-17.22-.19-2.09-1-4-2.94-5.06-1.76-.9-3.91-1.11-5.38.4-1.66,1.71-2.47,4.24-3.09,6.48a61,61,0,0,0-1.72,9.57,111,111,0,0,0-.68,11.38,42.75,42.75,0,0,0,.41,8c.12.65.25-.5.25-.59a10.06,10.06,0,0,0-.06-2.26,32,32,0,0,1-.23-4.93c0-2.76.18-5.52.45-8.27a66.33,66.33,0,0,1,1.42-9A20.8,20.8,0,0,1,74,209.64c1-1.53,2.37-2.57,4.26-2.2a5.29,5.29,0,0,1,4.24,3.49c.69,2.14-.16,4.6-.83,6.64a54.82,54.82,0,0,1-3.45,8,133.32,133.32,0,0,1-8.58,14.28c-.06.08,0,.41,0,.44Z" transform="translate(-35.46 -19.43)"/><path class="cls-2" d="M57.08,192.1c4.83-4.39,29.06-29.29,14.31-35.22-12.86-5.31-15.74,27.74-14,34.33" transform="translate(-35.46 -19.43)"/><path class="cls-30" d="M57.08,193a70.29,70.29,0,0,0,11.78-12.76c4-5.29,7.94-11.43,7.31-18.34a7.46,7.46,0,0,0-4-6.06,6.28,6.28,0,0,0-7,.06c-2.2,1.57-3.55,4.15-4.55,6.58a48.26,48.26,0,0,0-2.7,9.87A78.34,78.34,0,0,0,56.76,184c-.06,2.89-.19,6,.6,8.85,0,.18.22-.93.22-1a8,8,0,0,0-.07-2.18,16.21,16.21,0,0,1-.36-4.91,61.9,61.9,0,0,1,.85-8.71,50.69,50.69,0,0,1,2.31-9.25,18.82,18.82,0,0,1,4-6.88A6.34,6.34,0,0,1,70,158c2.4.46,4.68,1.67,5.6,4a5.62,5.62,0,0,1,.36,1.44c0-.4,0,0,0,.16-.06.38-.11.76-.2,1.14a20,20,0,0,1-1.39,4,48.18,48.18,0,0,1-5.07,8.41,128.19,128.19,0,0,1-12.18,14.05c-.3.3.16,1.57,0,1.7Z" transform="translate(-35.46 -19.43)"/><path class="cls-2" d="M60,212.29c-3-9.43-19-22.38-24-16-3,13.2,14,27.34,24,15.08" transform="translate(-35.46 -19.43)"/><path class="cls-30" d="M60.06,211.43c-1.34-5-5.1-9.23-8.87-12.56-3.12-2.75-7.64-6.41-12.13-5.94a4.52,4.52,0,0,0-2.26.84,3.13,3.13,0,0,0-1.13,2.53,23.27,23.27,0,0,0,.43,8.6,18.28,18.28,0,0,0,9,11.53,11.61,11.61,0,0,0,15-3.26c.31-.41.16-1.62.15-2.08,0-.2-.24-1.61-.2-1.64a13.94,13.94,0,0,1-5.92,4.17,11.3,11.3,0,0,1-6.34.07A17,17,0,0,1,37.56,205c-.9-1.77-1.84-4.3-1.64-6s1.87-2.55,3.51-2.67c4-.27,8.15,2.47,11.08,4.84a31.44,31.44,0,0,1,9.5,12c0,.11.12-.57.12-.62a3.62,3.62,0,0,0-.07-1.09Z" transform="translate(-35.46 -19.43)"/><path class="cls-2" d="M76,262.25c-8-1.89-29-6.67-31,3.7-2,15.09,29,6.67,32-2.76" transform="translate(-35.46 -19.43)"/><path class="cls-30" d="M76,261.17a36.71,36.71,0,0,0-8-2.07,64.36,64.36,0,0,0-9.88-1.18c-4.77-.14-11.74.43-13.12,6.07a13.11,13.11,0,0,0,.53,8.14,6.92,6.92,0,0,0,4.4,3.39c4.84,1.46,10.5.21,15.13-1.44a30.42,30.42,0,0,0,7.84-4c1.9-1.41,3.68-3.13,4.19-5.5a7.82,7.82,0,0,0,.08-2c0-.14-.11-1.09-.21-.93a16.37,16.37,0,0,1-3.43,4.08,27,27,0,0,1-6.06,3.57,31.26,31.26,0,0,1-14.54,3,10.91,10.91,0,0,1-5.51-1.67,5.61,5.61,0,0,1-1.75-1.94,4.92,4.92,0,0,1-.44-1.12,3.77,3.77,0,0,0-.13-.62s-.09.64,0,.51a11.4,11.4,0,0,0,.54-1.59,6.22,6.22,0,0,1,1-1.49,8.21,8.21,0,0,1,2.82-1.9,20.48,20.48,0,0,1,7.91-1.36,58.85,58.85,0,0,1,10.17.87c2.75.43,5.62,1.29,8.41,1.37.11,0,.25-2.05,0-2.16Z" transform="translate(-35.46 -19.43)"/><polygon class="cls-31" points="59.78 201.6 76.03 201.6 76.03 205.25 63.67 205.25 63.67 216.45 75.09 216.45 75.09 220.05 63.67 220.05 63.67 235.3 59.78 235.3 59.78 201.6"/><path class="cls-31" d="M124.92,230c-6,0-10.75,4.75-10.75,12.85,0,7.66,4.53,12.46,10.39,12.46,5.24,0,10.79-3.91,10.79-12.86C135.35,235,131.14,230,124.92,230Zm.24,17.88c-6.45,0-6.44-10,0-10S131.59,247.86,125.16,247.86Z" transform="translate(-35.46 -19.43)"/><path class="cls-31" d="M149.72,230c-6,0-10.75,4.75-10.75,12.85,0,7.66,4.52,12.46,10.39,12.46,5.24,0,10.79-3.91,10.79-12.86C160.15,235,155.94,230,149.72,230Zm-.13,17.23c-6.45,0-6.44-10,0-10S156,247.21,149.59,247.21Z" transform="translate(-35.46 -19.43)"/><path class="cls-31" d="M184.05,248.49V219.23h-3.94v14.45H180a7.07,7.07,0,0,0-6.53-3.7c-5.29,0-9.76,5-9.72,13,0,7.35,4,12.31,9.27,12.31a7.94,7.94,0,0,0,7.39-4.75h.08l.18,4.2h3.54C184.1,253.08,184.05,250.63,184.05,248.49ZM172.52,247c-6.45,0-6.44-10,0-10S179,247,172.52,247Z" transform="translate(-35.46 -19.43)"/><polygon class="cls-31" points="180.82 219.5 169.09 219.5 169.09 231.65 182.16 231.65 182.16 235.3 165.19 235.3 165.19 201.6 181.49 201.6 181.49 205.25 169.09 205.25 169.09 215.9 180.82 215.9 180.82 219.5"/><path class="cls-31" d="M224.6,230.53l3.09,5.2c.81,1.35,1.48,2.6,2.19,4H230c.71-1.45,1.43-2.7,2.15-4l3-5.15h4.25l-7.38,11.7,7.61,12.51h-4.48L232,249.29c-.85-1.41-1.56-2.75-2.33-4.21h-.08c-.72,1.46-1.48,2.75-2.29,4.21l-3.13,5.45h-4.34l7.7-12.36-7.35-11.85Z" transform="translate(-35.46 -19.43)"/><path class="cls-31" d="M255,230a8.36,8.36,0,0,0-7.7,4.7h-.09l-.18-4.15h-3.53c.09,2.3.18,4.8.18,7.9v26.21h3.89V251.49h.09a7.4,7.4,0,0,0,6.67,3.8c5.1,0,9.85-4.3,9.85-13C264.22,234.93,260.28,230,255,230Zm-.24,17.45c-6.44,0-6.43-10,0-10S261.24,247.43,254.8,247.43Z" transform="translate(-35.46 -19.43)"/><path class="cls-31" d="M269.41,238.08c0-2.85-.05-5.3-.18-7.55h3.45l.13,4.75H273c1-3.25,3.36-5.3,6-5.3a3.84,3.84,0,0,1,1.12.15v4.15a5.41,5.41,0,0,0-1.35-.15c-2.77,0-4.74,2.35-5.28,5.65a13.72,13.72,0,0,0-.18,2.05v12.91h-3.89Z" transform="translate(-35.46 -19.43)"/><path class="cls-31" d="M301.37,241.38c0-4.45-1.88-11.4-8.95-11.4-6.32,0-10.17,5.75-10.17,13.05s4,12.21,10.66,12.21a16,16,0,0,0,7.21-1.5l-.67-3.16a12.86,12.86,0,0,1-6,1.25c-3.94,0-7.35-2.45-7.43-8.4h15.22A20,20,0,0,0,301.37,241.38Zm-9.23.48c-6.44,0-6.43-10,0-10S298.58,241.86,292.14,241.86Z" transform="translate(-35.46 -19.43)"/><path class="cls-31" d="M309.37,250.24a9.7,9.7,0,0,0,5.2,1.75c2.86,0,4.21-1.61,4.21-3.61s-1.12-3.25-4-4.45c-3.9-1.55-5.73-4-5.73-6.85,0-3.9,2.82-7.1,7.47-7.1a9.94,9.94,0,0,1,5.33,1.5l-1,3.2a7.79,7.79,0,0,0-4.43-1.4,3.29,3.29,0,0,0-3.62,3.3c0,2,1.29,2.9,4.11,4.1,3.77,1.6,5.69,3.7,5.69,7.31,0,4.25-2.95,7.25-8.1,7.25a11.33,11.33,0,0,1-6.09-1.66Z" transform="translate(-35.46 -19.43)"/><path class="cls-31" d="M328.09,250.24a9.64,9.64,0,0,0,5.19,1.75c2.87,0,4.21-1.61,4.21-3.61s-1.12-3.25-4-4.45c-3.89-1.55-5.73-4-5.73-6.85,0-3.9,2.82-7.1,7.48-7.1a9.91,9.91,0,0,1,5.32,1.5l-1,3.2a7.81,7.81,0,0,0-4.43-1.4,3.3,3.3,0,0,0-3.63,3.3c0,2,1.3,2.9,4.12,4.1,3.76,1.6,5.69,3.7,5.69,7.31,0,4.25-3,7.25-8.11,7.25a11.38,11.38,0,0,1-6.09-1.66Z" transform="translate(-35.46 -19.43)"/><text x="-35.46" y="-19.43"/><rect class="cls-32" x="76.49" y="250.66" width="212.13" height="11.57"/></g></g></svg>